Coordinates
version=1
nRows=25
nColumns=28
inDegrees=yes

Units are S.I. units (second, meters, Newtons, ...)
Angles are in degrees.

endheader
time	pelvis_tilt	pelvis_list	pelvis_rotation	pelvis_tx	pelvis_ty	pelvis_tz	hip_flexion_r	hip_adduction_r	hip_rotation_r	knee_angle_r	ankle_angle_r	subtalar_angle_r	mtp_angle_r	hip_flexion_l	hip_adduction_l	hip_rotation_l	knee_angle_l	socket_flexion	socket_adduction	socket_rotation	socket_tx	socket_ty	socket_tz	foot_flex	lumbar_extension	lumbar_bending	lumbar_rotation
      0.30833333	      1.27666460	     -3.98624877	     -7.61548458	     -0.39472026	      1.02052177	      0.28343077	     20.81977191	      0.81016069	     -6.85320445	    -67.16159325	     -7.00513703	    -23.17185412	     18.55071692	      3.33232413	     -0.87371329	     18.71514924	     -4.73390370	      5.78948340	      0.82473232	    -12.15440038	      0.04156834	     -0.01616961	      0.01090229	     -0.32938160	    -13.52061848	      1.59542229	      7.34515551
      0.31250000	      1.32133965	     -3.96667502	     -7.50062753	     -0.39050071	      1.02078583	      0.28356664	     21.33768853	      0.86513202	     -6.95300102	    -66.74240539	     -6.94551343	    -23.14945293	     18.56231808	      3.11223775	     -0.84635814	     18.67201421	     -4.74747289	      5.80410382	      0.87221871	    -12.11896534	      0.04244057	     -0.01595863	      0.01061809	     -0.27326965	    -13.69658876	      1.53937445	      7.33321510
      0.31666667	      1.35537445	     -4.25553966	     -7.24558411	     -0.38504531	      1.02126206	      0.28359256	     21.52671174	      1.18062710	     -7.28962451	    -65.95488240	     -6.17297481	    -22.30728157	     18.90346570	      2.50350574	     -1.25123598	     18.67456323	     -4.56114317	      5.64590750	      0.91361148	    -11.79916023	      0.04109463	     -0.01636505	      0.00975495	     -0.12106346	    -13.66770136	      1.90524947	      6.91317767
      0.32083333	      1.39521647	     -4.23185857	     -7.14571774	     -0.38087808	      1.02141794	      0.28376587	     22.04314632	      1.22897611	     -7.38575862	    -65.49618735	     -6.11030047	    -22.28939284	     18.91148306	      2.28792287	     -1.22171304	     18.64550922	     -4.57550927	      5.66142631	      0.95919782	    -11.75344848	      0.04192343	     -0.01622467	      0.00948375	     -0.05968481	    -13.85549534	      1.84530099	      6.90038239
      0.32500000	      1.35250769	     -4.35672334	     -6.94094630	     -0.37535488	      1.02172840	      0.28381539	     22.35028990	      1.35930106	     -7.70147920	    -64.70681756	     -5.67082673	    -22.04587728	     19.01766053	      1.72731114	     -1.37640625	     18.64478137	     -4.39241832	      5.48732471	      0.89089100	    -11.44987244	      0.04011923	     -0.01638448	      0.00956092	      0.24711631	    -13.69588981	      2.00252610	      6.70805254
      0.32916667	      1.60509665	     -4.69102515	     -6.63596863	     -0.37062660	      1.02233336	      0.28383461	     22.33206931	      1.70812237	     -8.04488471	    -63.84609409	     -5.01190419	    -21.17789974	     19.21630838	      1.16097195	     -1.85159620	     18.67403122	     -4.32711285	      5.45822492	      1.06304504	    -11.23908739	      0.04051186	     -0.01666562	      0.00798611	      0.27248557	    -14.06753293	      2.39598151	      6.21038533
      0.33333333	      1.61082302	     -4.66883360	     -6.49350275	     -0.36603321	      1.02254351	      0.28412094	     22.72675628	      1.77578072	     -8.14297515	    -63.11983455	     -4.88343739	    -21.15816226	     19.21498921	      0.88739515	     -1.82830735	     18.68706283	     -4.30727159	      5.43653957	      1.06103552	    -11.12462868	      0.04075333	     -0.01645163	      0.00798885	      0.41097502	    -14.11542746	      2.29334172	      6.18377730
      0.33750000	      1.60061567	     -4.77229512	     -6.31007792	     -0.36087493	      1.02271031	      0.28406382	     23.03997299	      1.87021353	     -8.43156954	    -62.32454456	     -4.53361104	    -21.06181232	     19.22791680	      0.39292004	     -1.90520076	     18.67667684	     -4.17735959	      5.30208841	      0.95315521	    -10.89984912	      0.03945850	     -0.01662472	      0.00844651	      0.59130265	    -14.08787379	      2.47503765	      6.04281422
      0.34166667	      1.62908013	     -4.75887254	     -6.17038151	     -0.35631761	      1.02291764	      0.28440490	     23.36501179	      1.94778283	     -8.53462781	    -61.49862519	     -4.36655883	    -21.01731535	     19.22582313	      0.14844526	     -1.91652358	     18.65815024	     -4.18020737	      5.30849501	      1.00443191	    -10.83379636	      0.04011754	     -0.01639415	      0.00812822	      0.66551710	    -14.16545447	      2.37352129	      5.96946117
      0.34583333	      2.00759354	     -5.24224451	     -5.75359654	     -0.35129203	      1.02361903	      0.28422680	     23.07484570	      2.35710168	     -9.09305038	    -60.42569513	     -3.71672952	    -20.41083344	     19.09864031	     -0.68825771	     -2.55705256	     18.71273506	     -4.04739081	      5.21408358	      1.12937433	    -10.45699690	      0.03954617	     -0.01695184	      0.00671102	      0.77223317	    -14.67464921	      2.99747910	      5.33939457
      0.35000000	      2.00212915	     -5.19229437	     -5.64205881	     -0.34669087	      1.02371047	      0.28454489	     23.41937851	      2.38039356	     -9.20027868	    -59.55404072	     -3.58900409	    -20.42679199	     19.06762478	     -0.93550933	     -2.51204284	     18.68772208	     -4.04117245	      5.20800528	      1.14335141	    -10.39844967	      0.03981964	     -0.01672086	      0.00665788	      0.90562184	    -14.69646599	      2.88131047	      5.32743106
      0.35416667	      1.97657443	     -5.16962836	     -5.50341156	     -0.34191821	      1.02378104	      0.28478607	     23.73496034	      2.41724744	     -9.33813367	    -58.62080518	     -3.40276375	    -20.45363555	     19.03232593	     -1.23280708	     -2.48077999	     18.68312041	     -4.00203165	      5.16642107	      1.11194071	    -10.27767052	      0.03963599	     -0.01657967	      0.00687326	      1.05134287	    -14.68500663	      2.82610470	      5.29010233
      0.35833333	      1.95604241	     -5.16767417	     -5.35565442	     -0.33708034	      1.02381721	      0.28495543	     24.01749859	      2.45973671	     -9.51038298	    -57.64945899	     -3.18615306	    -20.48519824	     18.98875331	     -1.54941161	     -2.46624583	     18.66967018	     -3.95752221	      5.11892138	      1.07280795	    -10.14919441	      0.03938994	     -0.01650189	      0.00711586	      1.19101493	    -14.67209713	      2.81024069	      5.22760357
      0.36250000	      1.94411567	     -5.17281092	     -5.20230729	     -0.33225557	      1.02385379	      0.28513833	     24.26905501	      2.50430475	     -9.69736537	    -56.63646937	     -2.95755587	    -20.52012006	     18.93467266	     -1.87041585	     -2.46884059	     18.65812568	     -3.91499747	      5.07396604	      1.03644467	    -10.01120780	      0.03916962	     -0.01641215	      0.00728462	      1.32509277	    -14.67401445	      2.80442745	      5.14451176
      0.36666667	      2.50459069	     -5.77758441	     -4.66246332	     -0.32724255	      1.02470920	      0.28471315	     23.65178068	      2.96067382	    -10.46967423	    -55.29590940	     -2.46369790	    -20.40550201	     18.24278080	     -2.87508956	     -3.26361444	     18.67259814	     -3.78405306	      4.98025953	      1.15571770	     -9.49167459	      0.03867016	     -0.01704841	      0.00575885	      1.41848132	    -15.40418706	      3.61042382	      4.38814056
      0.37083333	      2.47357004	     -5.69446530	     -4.58536966	     -0.32263193	      1.02462066	      0.28506748	     23.94453728	      2.95271777	    -10.55543041	    -54.26506024	     -2.32653112	    -20.44348041	     18.18273295	     -3.09032607	     -3.19294725	     18.63364384	     -3.78727093	      4.98339923	      1.17478959	     -9.46273408	      0.03898864	     -0.01682549	      0.00561895	      1.55422303	    -15.40314294	      3.46250648	      4.39403848
      0.37500000	      2.42490056	     -5.63196208	     -4.47438428	     -0.31790687	      1.02452379	      0.28533162	     24.20732918	      2.95558720	    -10.66707169	    -53.16640264	     -2.14765387	    -20.50722499	     18.11053158	     -3.34497687	     -3.12462996	     18.62445064	     -3.76152715	      4.95484724	      1.14457734	     -9.36597431	      0.03888421	     -0.01665097	      0.00582135	      1.69744998	    -15.37181206	      3.36540488	      4.38535408
      0.37916667	      2.78744721	     -6.00503091	     -4.10138922	     -0.31287257	      1.02510842	      0.28516110	     23.82210053	      3.27828940	    -11.20330529	    -51.79879572	     -1.84787613	    -20.80784188	     17.11234127	     -4.19969246	     -3.59893712	     18.58242043	     -3.61485793	      4.82954951	      1.15771727	     -8.93860319	      0.03782841	     -0.01700885	      0.00544541	      1.79169379	    -15.82569327	      3.85593750	      4.02594370
      0.38333333	      2.73686962	     -5.90305060	     -4.04355797	     -0.30831419	      1.02487619	      0.28552775	     24.09109159	      3.25578837	    -11.27253063	    -50.67886016	     -1.69131883	    -20.84279211	     17.05305411	     -4.37187117	     -3.51316184	     18.53399960	     -3.63445765	      4.84749573	      1.17953167	     -8.93584528	      0.03828007	     -0.01679854	      0.00522293	      1.93418259	    -15.81508481	      3.69279099	      4.03046419
      0.38750000	      2.65330943	     -5.87093581	     -3.90295221	     -0.30349464	      1.02469411	      0.28554327	     24.30748097	      3.28304895	    -11.37086366	    -49.44839909	     -1.46508982	    -20.94744443	     16.90153430	     -4.65758099	     -3.41298181	     18.56793886	     -3.58392750	      4.78347480	      1.04119385	     -8.75756735	      0.03769302	     -0.01669697	      0.00617844	      2.11511171	    -15.74146606	      3.71159134	      4.02563753
      0.39166667	      2.60812349	     -5.77581240	     -3.82977452	     -0.29886940	      1.02445651	      0.28595719	     24.52988299	      3.24540405	    -11.53277488	    -48.27839030	     -1.29715377	    -21.00931477	     16.82070439	     -4.85487937	     -3.35620534	     18.49374788	     -3.58327850	      4.78838861	      1.09784256	     -8.74129663	      0.03799976	     -0.01652244	      0.00585445	      2.20142529	    -15.72432690	      3.53435707	      3.99492096
      0.39583333	      2.53883299	     -5.69155915	     -3.70604844	     -0.29416297	      1.02423699	      0.28619779	     24.71129931	      3.22626664	    -11.65361439	    -46.99898876	     -1.10182079	    -21.08942497	     16.72405045	     -5.07787219	     -3.27836617	     18.49648289	     -3.55855731	      4.76331254	      1.07922947	     -8.62227140	      0.03790782	     -0.01634857	      0.00600043	      2.32971107	    -15.66666310	      3.42010196	      3.96115209
      0.40000000	      2.47112870	     -5.61901581	     -3.57793327	     -0.28943276	      1.02395068	      0.28640372	     24.88603358	      3.20872456	    -11.80053325	    -45.71681683	     -0.90758108	    -21.17937187	     16.61387339	     -5.30763091	     -3.19938138	     18.48920368	     -3.53503197	      4.73643060	      1.04048657	     -8.50455183	      0.03779415	     -0.01619922	      0.00627496	      2.45307274	    -15.61885415	      3.34720687	      3.91644089
      0.40416667	      2.40329916	     -5.55116893	     -3.44763507	     -0.28470067	      1.02365938	      0.28655453	     25.03212124	      3.19149454	    -11.96086075	    -44.39052589	     -0.71571740	    -21.26953754	     16.49481951	     -5.53498062	     -3.12446843	     18.47994544	     -3.51122104	      4.70940241	      1.00392993	     -8.38433429	      0.03771045	     -0.01608686	      0.00650898	      2.57357888	    -15.56556601	      3.26818341	      3.86076937
      0.40833333	      2.33463670	     -5.47890561	     -3.31279344	     -0.27996535	      1.02332831	      0.28672669	     25.16627093	      3.17064988	    -12.11922358	    -43.04234182	     -0.53054227	    -21.35503058	     16.36840584	     -5.76000699	     -3.05038176	     18.47668966	     -3.48779985	      4.68273634	      0.96639027	     -8.25561994	      0.03763062	     -0.01595901	      0.00673452	      2.69157207	    -15.51559125	      3.19423218	      3.79652072
